<?xml version="1.0" encoding="utf-8"?>
<!-- Generator: Adobe Illustrator 16.0.3, SVG Export Plug-In . SVG Version: 6.00 Build 0)  -->
<!DOCTYPE svg PUBLIC "-//W3C//DTD SVG 1.1//EN" "http://www.w3.org/Graphics/SVG/1.1/DTD/svg11.dtd">
<svg version="1.1" id="Шар_1" xmlns="http://www.w3.org/2000/svg" xmlns:xlink="http://www.w3.org/1999/xlink" x="0px" y="0px"
	 width="200px" height="100" viewBox="0 0 396.616 204.791" enable-background="new 0 0 200 100"
	 xml:space="preserve">
<symbol  id="Deleted_Symbol" viewBox="-201.1 -217.78 402.199 435.56">
	<g>
		<g>
			<g>
				<path fill="#ffffff" d="M-23.423,187.322c0,4.554,0,9.107,0,13.667c0,0,6.404-3.036,23.626-3.036
					c17.213,0,23.624,3.036,23.624,3.036c0-4.56,0-9.113,0-13.667c0,0-6.411,2.963-23.624,2.963
					C-17.019,190.285-23.423,187.322-23.423,187.322z"/>
			</g>
		</g>
		<g>
			<g>
				<path fill="#ffffff" d="M-6.636,217.779c4.554,0,9.113,0,13.67,0c0,0-3.037-6.407-3.037-23.626
					c0-17.216,3.037-23.624,3.037-23.624c-4.557,0-9.116,0-13.67,0c0,0,2.966,6.408,2.966,23.624
					C-3.67,211.372-6.636,217.779-6.636,217.779z"/>
			</g>
		</g>
	</g>
	<g>
		<path fill="#ffffff" d="M182.265,105.848c-0.002,2.699-10.547-1.309-10.545-4.002c0.043-41.764-0.068-73.522-0.027-115.285
			c0.049-49.431-0.004-150.564-0.012-171.337c-19.545,5.021-39.902,9.351-59.807,9.962c-38.172,1.173-81.244-9.608-111.141-35.49
			c-0.113-0.098-0.221-0.199-0.333-0.298c-27.948,24.454-67.217,35.16-103.021,35.619c-22.817,0.293-46.112-4.169-68.581-9.197
			c-0.036,40.758-0.072,83.295-0.108,123.951c-0.047,54.301,0.113,159.014,0.111,162.073c-0.002,2.699-10.666,6.697-10.664,4.002
			c0.037-41.781,0.074-77.559,0.111-119.339c0.049-54.302-0.113-171.021-0.111-174.078c0.002-2.434,6.818-1.922,8.088-1.616
			c20.586,4.951,42.197,7.061,63.314,7.438c36.967,0.661,78.402-7.407,105.85-34.487c2.084-2.058,7.943-2.058,10.027,0
			c27.838,27.471,68.93,35.685,106.457,34.679c20.874-0.56,42.342-3.149,62.565-8.55c1.262-0.338,7.828-0.796,7.826,1.615
			c-0.043,41.763-0.084,85.527-0.125,127.29C182.085-6.699,182.269,102.667,182.265,105.848z"/>
		<g>
			<g>
				<g>
					<path fill="#ffffff" d="M-201.041,123.094c-0.002-42.471-0.02-280.994-0.02-282.674c0-2.696,10.4-6.699,10.4-4.002
						c0.002,42.472,0.02,284.996,0.02,286.676C-190.641,125.79-201.039,125.791-201.041,123.094L-201.041,123.094z"/>
				</g>
				<path fill="#ffffff" d="M-68.559,173.539c-26.188,0-42.922-13.369-64.072-29.215c-21.836-16.36-41.563-20.814-68.469-18.064
					v-3.993c26.906-4.382,52.955,0.245,74.371,16.495c19.5,14.796,33.58,31.173,58.215,31.173c12.58,0,20.996-12.831,20.996-20.67
					c0-5.461-1.467-16.461-13.641-16.461c-10.652,0-13.736,12.958-9.404,20.125c-15.707,0-16.55-24.325,9.598-24.325
					c11.197,0,22.73,6.5,22.73,20C-38.234,157.687-44.678,173.539-68.559,173.539z"/>
			</g>
			<g>
				<g>
					<path fill="#ffffff" d="M201.041,123.094c0.002-42.471,0.02-280.994,0.02-282.674c0-2.696-10.4-6.699-10.4-4.002
						c-0.002,42.472-0.02,284.996-0.02,286.676C190.64,125.79,201.039,125.791,201.041,123.094L201.041,123.094z"/>
				</g>
				<path fill="#ffffff" d="M68.559,173.539c26.188,0,42.922-13.369,64.072-29.215c21.836-16.36,41.563-20.814,68.469-18.064v-3.993
					c-26.906-4.382-52.955,0.245-74.371,16.495c-19.5,14.796-33.58,31.173-58.214,31.173c-12.58,0-20.996-12.831-20.996-20.67
					c0-5.461,1.467-16.461,13.641-16.461c10.652,0,13.736,12.958,9.404,20.125c15.707,0,16.55-24.325-9.598-24.325
					c-11.197,0-22.73,6.5-22.73,20C38.234,157.687,44.678,173.539,68.559,173.539z"/>
			</g>
		</g>
	</g>
	<g>
		<g>
			<path fill="#ffffff" d="M87.138,101.554c-24.25,0-40.324-18.495-45.666-24.292C34.499,69.699-105.355-115.84-98.07-105.779
				c-11.042-13.584-21.572-19.043-31.886-22.168l0.052-1.936c26.959,0,46.125,19.854,49.459,24.187
				C-70.075-92.218,15.171,22.168,48.84,64.441c4.869,6.113,9.556,12.202,14.879,17.783c2.116,2.219,13.231,14.829,23.253,14.829
				c11,0,18.041-8.601,18.041-17.125c0-9.25-5-18.875-15.874-21.292c-10.329-2.295-18.829,3.198-20.417,4.834
				c0,0-10.435-2.932-10.441-3.027c5.941-5.307,22.046-8.422,31.524-6.807c14.667,2.5,27.585,12.292,27.585,27.167
				C117.39,90.814,107.305,101.554,87.138,101.554z"/>
		</g>
		<g>
			<path fill="#ffffff" d="M-42.657-6.033c-6.437,12.1-29.052,58.514-38.711,78.215c-6.494,13.247-15.351,18.282-22.071,19.875
				c-4.617,1.094-27.462-0.018-32.876-0.036v-0.363c6.938-2.932,20.762-18.272,26.12-29.862
				c3.605-7.799,25.234-52.141,32.741-66.354c7.467-14.138,23.875-19.281,30.834-20.138c5.532-0.681,11.451-0.17,17.008-0.17
				c1.168,0,2.369,0.042,3.583,0.096v3.53C-32.984-18.263-38.729-13.418-42.657-6.033z"/>
		</g>
		<g>
			<path fill="#ffffff" d="M96.325-63.527c-1.831,0.73-3.604,1.634-5.311,2.756c-3.792,2.492-5.721,6.113-7.777,10.01
				c-4.755,9.014-18.16,35.273-25.104,49.696c-4.606,9.567-13.584,18.899-22.672,19.372c-10.66,0.555-21.579-1.121-32.144,0
				C8.369,17.771,21.87,7.203,30.021-7.443c2.578-4.635,15.602-35.188,24.188-47.038C64.63-68.867,83.293-65.73,96.325-65.73
				V-63.527z"/>
		</g>
		<polygon fill="#ffffff" points="12.862,-113.829 -13.804,-113.829 -13.804,149.45 12.862,149.45 		"/>
		<path fill="#ffffff" d="M-21.743-126.341"/>
		<path fill="#ffffff" d="M-61.987,57.179"/>
		<path fill="#ffffff" d="M60.219,92.771"/>
		<path fill="#ffffff" d="M150.097,18.322l-20.041,0.018v-1.122c10.209-5.874-5.072-28.126-13.025-38.667h-0.139
			c-26.52-34.922-64.872-85.61-87.249-114.763c-4.759-6.199-9.556-12.202-14.879-17.782c-2.116-2.219-13.231-14.83-23.253-14.83
			c-11,0-18.041,8.602-18.041,17.125c0,9.25,5,18.875,15.874,21.292c10.329,2.296,18.829-3.198,20.417-4.833
			c0,0,10.435,2.932,10.441,3.027c-5.941,5.307-22.046,8.422-31.524,6.806c-14.667-2.5-27.585-12.292-27.585-27.167
			c0-10.01,10.085-20.75,30.252-20.75c24.25,0,40.324,18.495,45.666,24.292c2.604,2.823,62.609,82.528,96.955,127.583h-0.057
			c0.82,1.096,1.506,2.019,2.021,2.723C140.804-12.08,158.083,9.051,150.097,18.322z"/>
	</g>
</symbol>
<g id="Новий_символ_3_1_">
	<g id="Новий_символ_2">
		<g id="Новий_символ_9_">
		</g>
		<g id="Новий_символ_5_">
		</g>
		<g id="Новий_символ_2_">
		</g>
		<g id="Новий_символ_1_">
		</g>
		<g id="Новий_символ_6_">
		</g>
		<g id="Новий_символ_10_">
		</g>
		<g id="Новий_символ_7_">
		</g>
		<g id="Новий_символ_3_">
		</g>
		<g id="Новий_символ">
		</g>
	</g>
</g>
<g id="Новий_символ_12_">
</g>
<g id="Новий_символ_11_">
</g>
<g id="Новий_символ_3">
	<g id="Новий_символ_2_1_">
	</g>
</g>
<g>
	<path fill="#ffffff" d="M74.034,74.438c-2.242-4.573-5.299-6.311-7.619-6.861c-1.594-0.377-9.479,0.006-11.348,0.013v0.126
		c2.395,1.012,7.167,6.307,9.016,10.308c1.245,2.692,8.71,17.997,11.302,22.903c2.577,4.881,8.241,6.656,10.643,6.951
		c1.104,0.136,2.252,0.132,3.396,0.106c-11.647,15.368-22.375,29.566-21.155,27.882c-3.812,4.689-7.446,6.573-11.006,7.652
		l0.018,0.668c9.306,0,15.921-6.854,17.072-8.35c2.026-2.633,12.332-16.425,23.003-30.546v33.354h9.204V94.878
		c1.966,1.581,4.264,4.064,5.923,7.045c0.89,1.6,5.386,12.146,8.35,16.236c2.488,3.436,6.339,3.976,9.965,3.981
		c-6.743,8.889-13.654,17.989-18.444,24.23c-1.643,2.14-3.299,4.212-5.136,6.138c-0.73,0.766-4.567,5.119-8.027,5.119
		c-3.797,0-6.227-2.969-6.227-5.911c0-3.192,1.726-6.515,5.479-7.35c3.565-0.792,6.499,1.104,7.047,1.669
		c0,0,3.603-1.013,3.604-1.045c-2.051-1.832-7.61-2.908-10.881-2.35c-5.063,0.863-9.522,4.242-9.522,9.377
		c0,3.455,3.481,7.162,10.442,7.162c8.37,0,13.919-6.383,15.763-8.385c0.899-0.975,21.611-28.486,33.467-44.039h-0.02
		c0.283-0.378,0.52-0.696,0.698-0.939c1.682-2.294,7.646-9.588,4.89-12.788l-6.918-0.007v0.388
		c3.523,2.028-1.751,9.708-4.496,13.347h-0.048c-2.942,3.875-6.309,8.313-9.776,12.886c-0.788-0.783-1.302-1.747-1.841-2.767
		c-1.641-3.111-6.269-12.176-8.665-17.154c-1.59-3.303-4.689-6.523-7.826-6.688c-2.581-0.134-5.205,0.105-7.801,0.13V93.16
		c4.861-6.376,9.288-12.119,12.419-16.05c1.681-2.111,3.299-4.213,5.136-6.139c0.73-0.766,4.567-5.119,8.026-5.119
		c3.797,0,6.228,2.969,6.228,5.911c0,3.192-1.726,6.516-5.479,7.35c-3.565,0.792-6.499-1.104-7.047-1.669
		c0,0-3.603,1.012-3.604,1.045c2.051,1.832,7.609,2.908,10.882,2.35c5.063-0.862,9.521-4.242,9.521-9.377
		c0-3.455-3.481-7.162-10.442-7.162c-8.371,0-13.919,6.384-15.763,8.385c-0.642,0.696-4.545,5.76-9.876,12.746V47.767h-9.204v49.762
		c-2.023,2.664-4.095,5.395-6.155,8.113c-1.537-1.012-2.833-2.38-3.804-4.205C85.174,97.26,77.368,81.238,74.034,74.438z
		 M99.83,40.782h4.718c0,0-0.884-1.88-1.026-6.8c4.938,0.138,6.823,1.003,6.823,1.003v-4.717c0,0-1.885,0.886-6.824,1.026
		c0.141-4.938,1.027-6.823,1.027-6.823H99.83c0,0,0.866,1.885,1.004,6.822c-4.921-0.143-6.798-1.025-6.798-1.025v4.717
		c0,0,1.877-0.862,6.797-1.002C100.693,38.903,99.83,40.782,99.83,40.782z M171.535,55.771c-9.287,0.949-16.097-0.589-23.634-6.235
		c-7.301-5.47-13.077-10.084-22.116-10.084c-8.243,0-10.468,5.471-10.468,8.606c0,4.66,3.981,6.903,7.847,6.903
		c9.025,0,8.734-8.396,3.313-8.396c1.495,2.475,0.431,6.947-3.246,6.947c-4.202,0-4.708-3.797-4.708-5.682
		c0-2.706,2.904-7.135,7.247-7.135c8.503,0,13.363,5.652,20.095,10.76c6.429,4.879,14.069,6.719,22.061,6.121
		c0,8.149,0.006,84.321,0.007,98.241c0,0.931,3.59-0.45,3.59-1.382c0-0.575-0.006-81.896-0.007-97.284l0.021-0.003V55.771z
		 M78.471,40.696c4.342,0,7.248,4.429,7.248,7.135c0,1.885-0.506,5.682-4.708,5.682c-3.677,0-4.742-4.473-3.246-6.947
		c-5.422,0-5.713,8.396,3.313,8.396c3.865,0,7.846-2.243,7.846-6.903c0-3.136-2.224-8.606-10.467-8.606
		c-9.039,0-14.815,4.614-22.116,10.084c-7.538,5.646-14.347,7.185-23.634,6.235v1.378c0.007,0.001,0.013,0.002,0.02,0.003
		c0,15.387-0.007,96.709-0.007,97.284c0,0.932,3.59,2.313,3.59,1.382c0.001-13.92,0.006-90.092,0.007-98.241
		c7.992,0.599,15.631-1.242,22.061-6.121C65.107,46.349,69.967,40.696,78.471,40.696z M161.395,64.198
		c0.015,14.416-0.023,25.379-0.01,39.794c0.017,17.063-0.001,51.972-0.004,59.142c-6.747-1.732-13.773-3.228-20.645-3.438
		c-13.176-0.405-28.043,3.317-38.363,12.251c-0.039,0.033-0.076,0.068-0.114,0.103c-9.647-8.441-23.202-12.137-35.561-12.295
		c-7.876-0.102-15.917,1.438-23.672,3.175c-0.013-14.068-0.025-28.752-0.038-42.785c-0.016-18.744,0.039-54.889,0.039-55.944
		c-0.001-0.932-3.682-2.312-3.681-1.382c0.013,14.422,0.025,26.771,0.039,41.193c0.017,18.744-0.039,59.033-0.039,60.088
		c0,0.84,2.354,0.664,2.792,0.559c7.106-1.709,14.566-2.438,21.855-2.567c12.76-0.229,27.063,2.557,36.537,11.904
		c0.719,0.71,2.742,0.71,3.461,0c9.608-9.482,23.793-12.317,36.746-11.971c7.205,0.193,14.616,1.087,21.597,2.951
		c0.436,0.116,2.702,0.274,2.701-0.558c-0.015-14.415-0.029-29.521-0.043-43.938c-0.02-18.813,0.044-56.564,0.043-57.662
		C165.033,61.886,161.394,63.269,161.395,64.198z"/>
	<g>
		<path fill="#ffffff" d="M201.631,53.57v1.447c-1.429,0.158-2.144,1.088-2.144,2.789v9.731c0,4.287,1.389,7.095,4.168,8.421
			c1.066,0.511,2.421,0.766,4.066,0.766c1.678,0,3.227-0.408,4.645-1.225c1.542-0.907,2.591-2.257,3.147-4.049
			c0.306-1.01,0.459-2.586,0.459-4.729v-9.204c0-1.531-0.726-2.354-2.178-2.467v-1.48h6.09v1.48
			c-1.429,0.113-2.144,0.936-2.144,2.467v10.871c0,7.055-3.544,10.582-10.632,10.582c-4.026,0-6.918-1.027-8.676-3.08
			c-1.656-1.837-2.484-4.666-2.484-8.488v-9.596c0-1.701-0.714-2.619-2.144-2.756v-1.48H201.631z"/>
		<path fill="#ffffff" d="M228.774,69.018l3.76-3.181c0.589-0.499,0.884-0.851,0.884-1.055c0-0.397-0.386-0.596-1.157-0.596v-1.36
			h6.482v1.36c-1.305,0.091-2.705,0.777-4.202,2.059l-2.246,1.939l5.359,6.839c1.077,1.43,1.984,2.154,2.722,2.178v1.361h-7.519
			v-1.379c0.476-0.021,0.811-0.078,1.003-0.17c0.193-0.09,0.323-0.221,0.392-0.391l0.034-0.137l0.017-0.188l-0.051-0.152
			l-0.085-0.221l-4.304-5.529l-1.089,0.936v3.113c0.045,1.734,0.629,2.688,1.752,2.857v1.344h-6.771v-1.344
			c1.213-0.158,1.82-1.111,1.82-2.857V59.662c0-0.738-0.074-1.401-0.221-1.991c-0.238-0.408-0.743-0.675-1.514-0.8v-1.344h4.934
			V69.018z"/>
		<path fill="#ffffff" d="M249.525,62.826v2.518h0.017c1.236-1.883,2.569-2.824,3.998-2.824c1.384,0,2.076,0.618,2.076,1.854
			c0,1.032-0.488,1.548-1.463,1.548c-0.601,0-1.066-0.193-1.395-0.578c-0.204-0.352-0.459-0.527-0.765-0.527
			c-0.59,0-1.134,0.477-1.633,1.429c-0.556,1.044-0.833,2.303-0.833,3.776v4.424c0,1.826,0.601,2.773,1.803,2.841v1.36h-6.771
			v-1.344c1.213-0.136,1.82-1.088,1.82-2.857v-8.251c0-1.112-0.595-1.786-1.786-2.024v-1.344H249.525z"/>
		<path fill="#ffffff" d="M268.962,76.521c-1.395,1.418-3,2.126-4.814,2.126c-1.52,0-2.705-0.413-3.556-1.241
			c-0.839-0.749-1.259-1.747-1.259-2.994c0-3.38,3.068-5.251,9.204-5.614c0-1.542-0.176-2.648-0.527-3.317
			c-0.397-0.885-1.185-1.327-2.365-1.327c-0.976,0-1.622,0.408-1.939,1.225c-0.261,0.738-0.403,1.129-0.425,1.174
			c-0.238,0.352-0.629,0.527-1.174,0.527c-0.918,0-1.378-0.413-1.378-1.241c0-0.749,0.454-1.417,1.361-2.007
			c1.009-0.715,2.308-1.072,3.896-1.072c2.438,0,4.077,0.794,4.917,2.381c0.499,0.977,0.749,2.456,0.749,4.441v4.898
			c0,1.577,0.533,2.365,1.599,2.365c0.17,0,0.425-0.085,0.766-0.256l0.34,0.579c-0.692,0.987-1.588,1.479-2.688,1.479
			C270.284,78.646,269.382,77.938,268.962,76.521z M268.537,70.243c-3.902,0.216-5.852,1.582-5.852,4.1
			c0,0.761,0.266,1.378,0.799,1.854c0.499,0.432,1.14,0.646,1.922,0.646c1.293,0,2.183-0.562,2.671-1.684
			c0.306-0.76,0.459-1.963,0.459-3.607V70.243z"/>
		<path fill="#ffffff" d="M283.727,62.826v11.619c0,1.826,0.613,2.773,1.837,2.841v1.36h-6.737v-1.344
			c1.191-0.136,1.786-1.088,1.786-2.857v-7.384c0-0.94-0.079-1.587-0.238-1.938c-0.238-0.477-0.754-0.795-1.548-0.953v-1.344
			H283.727z M280.256,56.344c0.363-0.465,0.862-0.697,1.497-0.697c0.578,0,1.049,0.193,1.412,0.578
			c0.42,0.408,0.63,0.891,0.63,1.446c0,0.646-0.233,1.157-0.698,1.531c-0.442,0.363-0.891,0.544-1.344,0.544
			c-0.522,0-1.004-0.209-1.446-0.629c-0.419-0.432-0.629-0.913-0.629-1.446C279.678,57.184,279.871,56.741,280.256,56.344z"/>
		<path fill="#ffffff" d="M290.305,77.32c1.213-0.17,1.82-1.135,1.82-2.893v-8.233c0-1.089-0.595-1.764-1.786-2.024v-1.327h4.934
			l-0.017,2.007c1.474-1.553,3.198-2.33,5.171-2.33h0.188c1.871,0.023,3.124,0.652,3.76,1.889c0.329,0.68,0.493,1.786,0.493,3.316
			v6.703c0,1.838,0.612,2.791,1.837,2.858v1.36H299.9V77.32c1.225-0.17,1.837-1.135,1.837-2.893V67.59
			c0-2.121-0.771-3.182-2.313-3.182c-1.622,0-3.006,0.885-4.151,2.653v7.366c0,1.781,0.601,2.745,1.803,2.893v1.326h-6.771V77.32z"
			/>
		<path fill="#ffffff" d="M316.069,62.826v11.619c0,1.826,0.613,2.773,1.837,2.841v1.36h-6.737v-1.344
			c1.191-0.136,1.786-1.088,1.786-2.857v-7.384c0-0.94-0.079-1.587-0.238-1.938c-0.238-0.477-0.754-0.795-1.548-0.953v-1.344
			H316.069z M312.599,56.344c0.363-0.465,0.862-0.697,1.497-0.697c0.578,0,1.049,0.193,1.412,0.578
			c0.42,0.408,0.63,0.891,0.63,1.446c0,0.646-0.233,1.157-0.698,1.531c-0.442,0.363-0.891,0.544-1.344,0.544
			c-0.522,0-1.004-0.209-1.446-0.629c-0.419-0.432-0.629-0.913-0.629-1.446C312.021,57.184,312.213,56.741,312.599,56.344z"/>
		<path fill="#ffffff" d="M331.915,76.521c-1.395,1.418-3,2.126-4.814,2.126c-1.52,0-2.705-0.413-3.556-1.241
			c-0.839-0.749-1.259-1.747-1.259-2.994c0-3.38,3.068-5.251,9.204-5.614c0-1.542-0.176-2.648-0.527-3.317
			c-0.397-0.885-1.185-1.327-2.365-1.327c-0.976,0-1.622,0.408-1.939,1.225c-0.261,0.738-0.403,1.129-0.425,1.174
			c-0.238,0.352-0.629,0.527-1.174,0.527c-0.918,0-1.378-0.413-1.378-1.241c0-0.749,0.454-1.417,1.361-2.007
			c1.009-0.715,2.308-1.072,3.896-1.072c2.438,0,4.077,0.794,4.917,2.381c0.499,0.977,0.749,2.456,0.749,4.441v4.898
			c0,1.577,0.533,2.365,1.599,2.365c0.17,0,0.425-0.085,0.766-0.256l0.34,0.579c-0.692,0.987-1.588,1.479-2.688,1.479
			C333.236,78.646,332.334,77.938,331.915,76.521z M331.489,70.243c-3.902,0.216-5.852,1.582-5.852,4.1
			c0,0.761,0.266,1.378,0.799,1.854c0.499,0.432,1.14,0.646,1.922,0.646c1.293,0,2.183-0.562,2.671-1.684
			c0.306-0.76,0.459-1.963,0.459-3.607V70.243z"/>
		<path fill="#ffffff" d="M341.779,77.32c1.213-0.17,1.82-1.135,1.82-2.893v-8.233c0-1.089-0.595-1.764-1.786-2.024v-1.327h4.934
			l-0.017,2.007c1.474-1.553,3.198-2.33,5.171-2.33h0.188c1.871,0.023,3.124,0.652,3.76,1.889c0.329,0.68,0.493,1.786,0.493,3.316
			v6.703c0,1.838,0.612,2.791,1.837,2.858v1.36h-6.805V77.32c1.225-0.17,1.837-1.135,1.837-2.893V67.59
			c0-2.121-0.771-3.182-2.313-3.182c-1.622,0-3.006,0.885-4.151,2.653v7.366c0,1.781,0.601,2.745,1.803,2.893v1.326h-6.771V77.32z"
			/>
		<path fill="#ffffff" d="M214.986,97.807c-0.692-1.701-1.843-2.988-3.454-3.862c-1.35-0.771-2.841-1.157-4.474-1.157
			c-2.348,0-4.395,0.942-6.141,2.824c-1.928,2.099-2.892,5.002-2.892,8.711c0,3.516,0.907,6.266,2.722,8.25
			c1.77,1.883,4.123,2.824,7.06,2.824c3.391,0,6.34-1.314,8.847-3.946l1.003,1.021c-2.926,3.086-6.459,4.627-10.599,4.627
			c-3.856,0-7.015-1.133-9.476-3.402c-2.518-2.381-3.777-5.518-3.777-9.407c0-3.8,1.208-6.935,3.624-9.407
			c2.427-2.484,5.535-3.727,9.323-3.727c1.701,0,3.521,0.268,5.461,0.8c1.282,0.329,2.172,0.493,2.671,0.493
			c0.261,0,0.544-0.152,0.851-0.459h0.868v5.818H214.986z"/>
		<path fill="#ffffff" d="M231.616,114.648c-1.395,1.418-3,2.127-4.814,2.127c-1.52,0-2.705-0.414-3.556-1.242
			c-0.839-0.748-1.259-1.746-1.259-2.994c0-3.38,3.068-5.251,9.204-5.614c0-1.542-0.176-2.647-0.527-3.317
			c-0.397-0.885-1.185-1.326-2.365-1.326c-0.976,0-1.622,0.408-1.939,1.225c-0.261,0.736-0.403,1.129-0.425,1.174
			c-0.238,0.352-0.629,0.527-1.174,0.527c-0.918,0-1.378-0.414-1.378-1.242c0-0.748,0.454-1.418,1.361-2.008
			c1.009-0.715,2.308-1.071,3.896-1.071c2.438,0,4.077,0.794,4.917,2.382c0.499,0.975,0.749,2.455,0.749,4.439v4.9
			c0,1.576,0.533,2.364,1.599,2.364c0.17,0,0.425-0.085,0.766-0.255l0.34,0.578c-0.692,0.986-1.588,1.48-2.688,1.48
			C232.938,116.775,232.036,116.066,231.616,114.648z M231.191,108.371c-3.902,0.215-5.852,1.582-5.852,4.1
			c0,0.76,0.266,1.379,0.799,1.854c0.499,0.431,1.14,0.646,1.922,0.646c1.293,0,2.183-0.562,2.671-1.685
			c0.306-0.76,0.459-1.961,0.459-3.606V108.371z"/>
		<path fill="#ffffff" d="M242.235,100.92v-3.505l3.113-1.753v5.258h3.386v1.429h-3.386v10.378c0,1.451,0.624,2.178,1.872,2.178
			c0.76,0,1.502-0.307,2.229-0.92l0.783,0.971c-1.236,1.395-2.683,2.092-4.338,2.092c-2.438,0-3.658-1.406-3.658-4.219v-10.479
			h-1.786v-1.429H242.235z"/>
		<path fill="#ffffff" d="M259.718,102.706h0.102c1.531-1.372,3.244-2.059,5.138-2.059c2.869,0,4.304,1.735,4.304,5.206v6.754
			c0,1.746,0.595,2.688,1.786,2.824v1.344h-6.686v-1.344c0.793-0.113,1.31-0.443,1.548-0.987c0.147-0.329,0.221-0.941,0.221-1.837
			v-6.891c0-2.132-0.782-3.198-2.348-3.198c-1.781,0-3.136,0.919-4.066,2.757v7.297c0.045,1.736,0.629,2.688,1.752,2.859v1.344
			h-6.771v-1.344c1.213-0.159,1.82-1.111,1.82-2.859V97.789c0-0.736-0.074-1.4-0.221-1.99c-0.238-0.408-0.743-0.674-1.514-0.799
			v-1.345h4.934V102.706z"/>
		<path fill="#ffffff" d="M290.29,106.533c0.17,0.692,0.255,1.475,0.255,2.348c0,0.557-0.085,1.203-0.255,1.939
			c-0.59,2.314-1.877,3.959-3.862,4.934c-1.146,0.578-2.359,0.868-3.641,0.868c-1.305,0-2.507-0.29-3.607-0.868
			c-2.019-0.963-3.329-2.607-3.93-4.934c-0.17-0.736-0.255-1.383-0.255-1.939c0-0.873,0.085-1.655,0.255-2.348
			c1.032-3.912,3.544-5.869,7.537-5.869C286.791,100.664,289.292,102.621,290.29,106.533z M279.793,103.471
			c-0.851,0.987-1.276,2.751-1.276,5.291c0,1.736,0.181,3.04,0.544,3.914c0.601,1.689,1.826,2.534,3.674,2.534
			c2.813,0,4.219-2.149,4.219-6.448c0-2.54-0.425-4.304-1.276-5.291c-0.635-0.816-1.616-1.225-2.943-1.225
			C281.432,102.246,280.451,102.654,279.793,103.471z"/>
		<path fill="#ffffff" d="M299.555,93.655v18.917c0.045,1.736,0.629,2.688,1.752,2.859v1.344h-6.771v-1.344
			c1.213-0.159,1.82-1.111,1.82-2.859V97.789c0-0.736-0.074-1.4-0.221-1.99c-0.238-0.408-0.743-0.674-1.514-0.799v-1.345H299.555z"
			/>
		<path fill="#ffffff" d="M310.679,100.953v11.619c0,1.826,0.613,2.773,1.837,2.842v1.361h-6.737v-1.344
			c1.191-0.137,1.786-1.09,1.786-2.859v-7.383c0-0.941-0.079-1.588-0.238-1.939c-0.238-0.477-0.754-0.793-1.548-0.953v-1.344
			H310.679z M307.208,94.473c0.363-0.466,0.862-0.698,1.497-0.698c0.578,0,1.049,0.192,1.412,0.579c0.42,0.408,0.63,0.89,0.63,1.445
			c0,0.646-0.233,1.156-0.698,1.531c-0.442,0.363-0.891,0.545-1.344,0.545c-0.522,0-1.004-0.211-1.446-0.63
			c-0.419-0.431-0.629-0.913-0.629-1.446C306.63,95.312,306.823,94.869,307.208,94.473z"/>
		<path fill="#ffffff" d="M330.999,113.628c-1.917,2.099-4.117,3.147-6.601,3.147c-2.053,0-3.805-0.646-5.257-1.939
			c-1.565-1.406-2.348-3.295-2.348-5.666c0-2.348,0.749-4.292,2.246-5.834c1.44-1.588,3.3-2.383,5.58-2.383
			c1.644,0,2.932,0.324,3.862,0.971c0.862,0.566,1.293,1.236,1.293,2.007c0,0.964-0.527,1.446-1.582,1.446
			c-1.089,0-1.656-0.527-1.702-1.582v-0.068c-0.091-0.918-0.68-1.378-1.769-1.378c-1.225,0-2.206,0.499-2.943,1.497
			c-0.941,1.18-1.412,2.955-1.412,5.324c0,2.167,0.652,3.721,1.956,4.662c0.839,0.646,1.826,0.97,2.96,0.97
			c2.019,0,3.652-0.663,4.899-1.991L330.999,113.628z"/>
		<path fill="#ffffff" d="M201.631,129.826v1.447c-1.429,0.158-2.144,1.088-2.144,2.789v9.731c0,4.287,1.389,7.095,4.168,8.421
			c1.066,0.511,2.421,0.766,4.066,0.766c1.678,0,3.227-0.408,4.645-1.225c1.542-0.907,2.591-2.257,3.147-4.049
			c0.306-1.01,0.459-2.586,0.459-4.729v-9.204c0-1.531-0.726-2.354-2.178-2.467v-1.48h6.09v1.48
			c-1.429,0.113-2.144,0.936-2.144,2.467v10.871c0,7.055-3.544,10.582-10.632,10.582c-4.026,0-6.918-1.027-8.676-3.08
			c-1.656-1.837-2.484-4.666-2.484-8.488v-9.596c0-1.701-0.714-2.619-2.144-2.756v-1.48H201.631z"/>
		<path fill="#ffffff" d="M223.44,153.576c1.213-0.17,1.82-1.135,1.82-2.893v-8.233c0-1.089-0.595-1.764-1.786-2.024v-1.327h4.934
			l-0.017,2.007c1.474-1.553,3.198-2.33,5.171-2.33h0.188c1.871,0.023,3.124,0.652,3.76,1.889c0.329,0.68,0.493,1.786,0.493,3.316
			v6.703c0,1.838,0.612,2.791,1.837,2.858v1.36h-6.805v-1.326c1.225-0.17,1.837-1.135,1.837-2.893v-6.838
			c0-2.121-0.771-3.182-2.313-3.182c-1.622,0-3.006,0.885-4.151,2.653v7.366c0,1.781,0.601,2.745,1.803,2.893v1.326h-6.771V153.576z
			"/>
		<path fill="#ffffff" d="M249.205,139.082v11.619c0,1.826,0.613,2.773,1.837,2.841v1.36h-6.737v-1.344
			c1.191-0.136,1.786-1.088,1.786-2.857v-7.384c0-0.94-0.079-1.587-0.238-1.938c-0.238-0.477-0.754-0.795-1.548-0.953v-1.344
			H249.205z M245.735,132.6c0.363-0.465,0.862-0.697,1.497-0.697c0.578,0,1.049,0.193,1.412,0.578c0.42,0.408,0.63,0.891,0.63,1.446
			c0,0.646-0.233,1.157-0.698,1.531c-0.442,0.363-0.891,0.544-1.344,0.544c-0.522,0-1.004-0.209-1.446-0.629
			c-0.419-0.432-0.629-0.913-0.629-1.446C245.156,133.439,245.349,132.997,245.735,132.6z"/>
		<path fill="#ffffff" d="M271.446,140.392c-1.214,0.147-2.064,0.816-2.552,2.007l-5.155,12.437h-0.902l-5.291-11.909
			c-0.613-1.429-1.52-2.273-2.722-2.534v-1.276h6.924v1.293c-0.884,0.046-1.327,0.363-1.327,0.953c0,0.158,0.107,0.482,0.323,0.97
			l3.249,7.247h0.068l2.892-7.213c0.17-0.556,0.255-0.925,0.255-1.105c0-0.5-0.499-0.783-1.497-0.852v-1.293h5.733V140.392z"/>
		<path fill="#ffffff" d="M288.34,151.586c-1.906,2.257-4.038,3.385-6.397,3.385c-1.781,0-3.346-0.471-4.695-1.412
			c-1.769-1.281-2.654-3.277-2.654-5.988c0-2.506,0.697-4.553,2.092-6.141c1.316-1.565,3.028-2.348,5.138-2.348
			c1.951,0,3.488,0.709,4.61,2.126c0.976,1.226,1.463,2.671,1.463,4.339v0.408H278.2c-0.023,0.283-0.034,0.799-0.034,1.547
			c0,3.801,1.44,5.699,4.321,5.699c1.724,0,3.391-0.811,5.002-2.432L288.34,151.586z M284.512,144.271
			c0-2.349-0.958-3.522-2.875-3.522c-2.132,0-3.255,1.26-3.368,3.777h6.243V144.271z"/>
		<path fill="#ffffff" d="M297.403,139.082v2.518h0.017c1.236-1.883,2.569-2.824,3.998-2.824c1.384,0,2.076,0.618,2.076,1.854
			c0,1.032-0.488,1.548-1.463,1.548c-0.601,0-1.066-0.193-1.395-0.578c-0.204-0.352-0.459-0.527-0.765-0.527
			c-0.59,0-1.134,0.477-1.633,1.429c-0.556,1.044-0.833,2.303-0.833,3.776v4.424c0,1.826,0.601,2.773,1.803,2.841v1.36h-6.771
			v-1.344c1.213-0.136,1.82-1.088,1.82-2.857v-8.251c0-1.112-0.595-1.786-1.786-2.024v-1.344H297.403z"/>
		<path fill="#ffffff" d="M317.08,140.051c0.828,0.568,1.242,1.248,1.242,2.042c0,0.851-0.431,1.276-1.293,1.276
			c-0.93,0-1.503-0.573-1.718-1.719c0-0.783-0.658-1.174-1.974-1.174c-1.962,0-2.943,0.748-2.943,2.246
			c0,0.736,0.306,1.32,0.918,1.752c0.363,0.261,1.174,0.545,2.433,0.851c1.644,0.465,2.824,0.901,3.539,1.31
			c1.383,0.816,2.075,1.979,2.075,3.488c0,1.395-0.59,2.54-1.769,3.436c-1.18,0.896-2.637,1.344-4.372,1.344
			c-1.826,0-3.278-0.413-4.355-1.241c-0.907-0.681-1.361-1.458-1.361-2.331c0-1.145,0.567-1.718,1.701-1.718
			c1.1,0,1.65,0.459,1.65,1.378c0,0.102-0.034,0.277-0.102,0.527c-0.045,0.25-0.068,0.432-0.068,0.545
			c0,0.362,0.165,0.669,0.494,0.918c0.465,0.352,1.134,0.527,2.007,0.527c1.043,0,1.865-0.271,2.467-0.816
			c0.487-0.453,0.731-0.998,0.731-1.633c0-1.021-0.833-1.82-2.501-2.398c-2.189-0.703-3.533-1.23-4.032-1.583
			c-1.214-0.794-1.82-1.905-1.82-3.335c0-1.405,0.499-2.545,1.497-3.419c0.964-0.827,2.206-1.241,3.726-1.241
			C314.862,139.082,316.138,139.404,317.08,140.051z"/>
		<path fill="#ffffff" d="M328.469,139.082v11.619c0,1.826,0.613,2.773,1.837,2.841v1.36h-6.737v-1.344
			c1.191-0.136,1.786-1.088,1.786-2.857v-7.384c0-0.94-0.079-1.587-0.238-1.938c-0.238-0.477-0.754-0.795-1.548-0.953v-1.344
			H328.469z M324.999,132.6c0.363-0.465,0.862-0.697,1.497-0.697c0.578,0,1.049,0.193,1.412,0.578c0.42,0.408,0.63,0.891,0.63,1.446
			c0,0.646-0.233,1.157-0.698,1.531c-0.442,0.363-0.891,0.544-1.344,0.544c-0.522,0-1.004-0.209-1.446-0.629
			c-0.419-0.432-0.629-0.913-0.629-1.446C324.42,133.439,324.613,132.997,324.999,132.6z"/>
		<path fill="#ffffff" d="M336.161,139.047v-3.504l3.113-1.752v5.256h3.386v1.43h-3.386v10.377c0,1.452,0.624,2.178,1.872,2.178
			c0.76,0,1.502-0.306,2.229-0.918l0.783,0.969c-1.236,1.396-2.683,2.094-4.338,2.094c-2.438,0-3.658-1.406-3.658-4.22v-10.479
			h-1.786v-1.43H336.161z"/>
		<path fill="#ffffff" d="M365.2,140.426c-0.976,0.215-1.786,1.01-2.433,2.381l-6.38,13.984c-0.839,1.849-1.577,3.137-2.211,3.861
			c-0.919,0.998-2.019,1.498-3.3,1.498c-1.928,0-2.892-0.749-2.892-2.246c0-1.19,0.521-1.786,1.565-1.786
			c0.454,0,0.902,0.153,1.344,0.46c0.419,0.362,0.833,0.544,1.242,0.544c0.896,0,1.616-0.642,2.161-1.923l1.191-2.551l-4.729-11.842
			c-0.692-1.406-1.662-2.193-2.909-2.364v-1.36h7.622v1.36h-0.494c-0.737,0-1.105,0.306-1.105,0.919
			c0,0.271,0.136,0.686,0.408,1.242l3.079,7.74h0.051l3.215-7.077c0.329-0.952,0.493-1.515,0.493-1.685
			c-0.363-0.748-0.891-1.128-1.582-1.14v-1.36h5.665V140.426z"/>
	</g>
</g>
<g id="Новий_символ_8_">
</g>
<g id="Новий_символ_4_">
</g>
</svg>
